#N canvas 540 81 1071 806 10;
#X obj 20 15 inlet~;
#X obj 73 15 inlet~;
#X obj 568 191 block~ 1;
#N canvas 847 257 484 389 arrays 0;
#X msg 23 181 const 0;
#X msg 24 43 const 0;
#X obj 23 160 r s_wavetab_1_reset;
#X msg 25 277 const 0;
#X obj 25 256 r s_wavetab_2_reset;
#X obj 24 66 array define -pix 20 200 -yrange -1 1 onesample_fx_in
2;
#X obj 23 212 array define -pix 500 200 -yrange -1 1 fx_wavetab_1 515
;
#X obj 25 308 array define -pix 500 200 -yrange -1 1 fx_wavetab_2 515
;
#X connect 0 0 6 0;
#X connect 1 0 5 0;
#X connect 2 0 0 0;
#X connect 3 0 7 0;
#X connect 4 0 3 0;
#X restore 568 212 pd arrays;
#X obj 100 99 clip~ -1 1;
#X obj 193 99 clip~ -1 1;
#X obj 124 190 loadbang;
#X msg 100 235 1, f 1;
#X msg 124 217 tempo 1 msec;
#X obj 124 350 metro 1;
#X obj 200 300 metro 1;
#X obj 568 314 v fx_inc1;
#X obj 578 292 v fx_inc2;
#X obj 648 312 v fx_wavetab_1_size;
#X obj 658 292 v fx_wavetab_2_size;
#X obj 124 382 expr fx_wavetab_1[fx_inc1 - 1] = onesample_fx_in[0]
\; fx_inc1 = fx_inc1 + 1 \; if(fx_inc1==fx_wavetab_1_size \, fx_inc1=0
\, fx_inc1);
#X obj 568 243 loadbang;
#X msg 568 269 0;
#X msg 648 269 515;
#X obj 100 127 fexpr~ onesample_fx_in[0] = $x1[0] * $f3 * $f4 \; onesample_fx_in[1]
= $x2[0] * $f3 * $f4;
#X obj 286 15 inlet;
#X obj 379 15 inlet;
#X obj 405 71 loadbang;
#X msg 405 100 1;
#X msg 305 100 0;
#X obj 379 39 clip 1 20;
#X obj 286 39 clip 0 1;
#X obj 559 15 inlet;
#X obj 559 39 moses 0;
#X obj 639 15 inlet;
#X obj 639 39 moses 0;
#X obj 20 758 outlet~;
#X obj 131 758 outlet~;
#N canvas 472 250 450 300 stereo_crossfade 0;
#X obj 47 87 inlet~;
#X obj 179 87 inlet~;
#X obj 47 198 outlet~;
#X obj 311 87 inlet;
#X obj 311 127 vline~;
#X obj 179 133 -~;
#X obj 179 158 *~;
#X obj 107 87 inlet~;
#X obj 241 87 inlet~;
#X obj 241 133 -~;
#X obj 241 159 *~;
#X obj 107 198 outlet~;
#X connect 0 0 5 1;
#X connect 0 0 2 0;
#X connect 1 0 5 0;
#X connect 3 0 4 0;
#X connect 4 0 6 1;
#X connect 4 0 10 1;
#X connect 5 0 6 0;
#X connect 6 0 2 0;
#X connect 7 0 9 1;
#X connect 7 0 11 0;
#X connect 8 0 9 0;
#X connect 9 0 10 0;
#X connect 10 0 11 0;
#X restore 20 717 pd stereo_crossfade;
#X obj 208 643 r \$0-dry-wet-mix;
#X obj 209 671 loadbang;
#X msg 209 695 1;
#X obj 486 15 inlet;
#X obj 486 39 clip 0 1;
#X obj 486 65 s \$0-dry-wet-mix;
#X obj 863 16 inlet;
#X obj 863 39 abs;
#X obj 120 528 r \$0-freq-l;
#X obj 183 549 r \$0-freq-r;
#X obj 863 65 s \$0-freq-l;
#X obj 953 16 inlet;
#X obj 953 39 abs;
#X obj 953 65 s \$0-freq-r;
#X obj 163 245 r \$0-wavetab-1-write-tempo;
#X obj 239 272 r \$0-wavetab-2-write-tempo;
#X obj 598 89 s \$0-wavetab-1-write-tempo;
#X obj 678 65 s \$0-wavetab-2-write-tempo;
#X obj 100 65 hip~ 10;
#X obj 193 65 hip~ 10;
#N canvas 736 464 557 255 tabosc4s 0;
#X obj 24 39 inlet;
#X obj 174 39 inlet;
#X obj 24 122 tabosc4~ fx_wavetab_1;
#X obj 174 122 tabosc4~ fx_wavetab_2;
#X obj 24 101 sig~ 200;
#X obj 174 101 sig~ 200;
#X obj 24 183 outlet~;
#X obj 174 183 outlet~;
#X obj 366 36 block~ 256 1 8;
#X connect 0 0 4 0;
#X connect 1 0 5 0;
#X connect 2 0 6 0;
#X connect 3 0 7 0;
#X connect 4 0 2 0;
#X connect 5 0 3 0;
#X restore 120 574 pd tabosc4s;
#X text 571 444 Audio In 1;
#X text 571 464 Audio In 2;
#X text 571 484 Audio Volume 0 - 1 \, init 0;
#X text 571 504 Gain 1 - 20 \, init 1;
#X text 571 524 Dry-Wet Mix \, 0-1 \, init 1 (100% processed signal)
;
#X text 570 419 INLETS (left to right):;
#X text 571 644 You can send values to \$0-block-size-read but rapid
changes can crash the patch.;
#X text 571 584 Playback OSC left Frequency \, init 200;
#X text 571 604 Playback OSC right Frequency \, init 200;
#X text 571 544 Write speed to left 1 sample buffer in milliseconds
\, init 1;
#X text 571 564 Write speed to right 1 sample buffer in milliseconds
\, init 1;
#X obj 200 333 expr fx_wavetab_2[fx_inc2 - 1] = onesample_fx_in[1]
\; fx_inc2 = fx_inc2 + 1 \; if(fx_inc2==fx_wavetab_2_size \, fx_inc2=0
\, fx_inc2);
#N canvas 0 23 436 346 MIT 0;
#X text 19 25 Copyright 2020 Tobias Hartmann Permission is hereby granted
\, free of charge \, to any person obtaining a copy of this software
and associated documentation files (the "Software") \, to deal in the
Software without restriction \, including without limitation the rights
to use \, copy \, modify \, merge \, publish \, distribute \, sublicense
\, and/or sell copies of the Software \, and to permit persons to whom
the Software is furnished to do so \, subject to the following conditions:
The above copyright notice and this permission notice shall be included
in all copies or substantial portions of the Software. THE SOFTWARE
IS PROVIDED "AS IS" \, WITHOUT WARRANTY OF ANY KIND \, EXPRESS OR IMPLIED
\, INCLUDING BUT NOT LIMITED TO THE WARRANTIES OF MERCHANTABILITY \,
FITNESS FOR A PARTICULAR PURPOSE AND NONINFRINGEMENT. IN NO EVENT SHALL
THE AUTHORS OR COPYRIGHT HOLDERS BE LIABLE FOR ANY CLAIM \, DAMAGES
OR OTHER LIABILITY \, WHETHER IN AN ACTION OF CONTRACT \, TORT OR OTHERWISE
\, ARISING FROM \, OUT OF OR IN CONNECTION WITH THE SOFTWARE OR THE
USE OR OTHER DEALINGS IN THE SOFTWARE.;
#X restore 573 687 pd MIT license;
#X connect 0 0 33 0;
#X connect 0 0 52 0;
#X connect 1 0 33 1;
#X connect 1 0 53 0;
#X connect 4 0 19 0;
#X connect 5 0 19 1;
#X connect 6 0 7 0;
#X connect 6 0 8 0;
#X connect 7 0 9 0;
#X connect 7 0 10 0;
#X connect 8 0 9 0;
#X connect 8 0 10 0;
#X connect 9 0 15 0;
#X connect 10 0 66 0;
#X connect 16 0 17 0;
#X connect 16 0 18 0;
#X connect 17 0 11 0;
#X connect 17 0 12 0;
#X connect 18 0 13 0;
#X connect 18 0 14 0;
#X connect 20 0 26 0;
#X connect 21 0 25 0;
#X connect 22 0 23 0;
#X connect 22 0 24 0;
#X connect 23 0 19 3;
#X connect 24 0 19 2;
#X connect 25 0 19 3;
#X connect 26 0 19 2;
#X connect 27 0 28 0;
#X connect 28 1 50 0;
#X connect 29 0 30 0;
#X connect 30 1 51 0;
#X connect 33 0 31 0;
#X connect 33 1 32 0;
#X connect 34 0 33 4;
#X connect 35 0 36 0;
#X connect 36 0 33 4;
#X connect 37 0 38 0;
#X connect 38 0 39 0;
#X connect 40 0 41 0;
#X connect 41 0 44 0;
#X connect 42 0 54 0;
#X connect 43 0 54 1;
#X connect 45 0 46 0;
#X connect 46 0 47 0;
#X connect 48 0 9 1;
#X connect 49 0 10 1;
#X connect 52 0 4 0;
#X connect 53 0 5 0;
#X connect 54 0 33 2;
#X connect 54 1 33 3;
