#N canvas 62 345 980 657 10;
#X obj 21 17 inlet~;
#X obj 71 17 inlet~;
#X obj 21 577 outlet~;
#X obj 151 577 outlet~;
#X obj 207 17 inlet;
#X obj 121 164 expr~ $v1 * $f3 * $f4 \; $v2 * $f3 * $f4;
#X obj 298 17 inlet;
#X obj 284 107 loadbang;
#X msg 284 137 1;
#N canvas 472 250 450 300 stereo_crossfade 0;
#X obj 47 87 inlet~;
#X obj 179 87 inlet~;
#X obj 47 198 outlet~;
#X obj 311 87 inlet;
#X obj 311 127 vline~;
#X obj 179 133 -~;
#X obj 179 158 *~;
#X obj 107 87 inlet~;
#X obj 241 87 inlet~;
#X obj 241 133 -~;
#X obj 241 159 *~;
#X obj 107 198 outlet~;
#X connect 0 0 5 1;
#X connect 0 0 2 0;
#X connect 1 0 5 0;
#X connect 3 0 4 0;
#X connect 4 0 6 1;
#X connect 4 0 10 1;
#X connect 5 0 6 0;
#X connect 6 0 2 0;
#X connect 7 0 9 1;
#X connect 7 0 11 0;
#X connect 8 0 9 0;
#X connect 9 0 10 0;
#X connect 10 0 11 0;
#X restore 21 536 pd stereo_crossfade;
#X obj 388 17 inlet;
#X obj 388 41 clip 0 1;
#X obj 388 66 s \$0-dry-wet-mix;
#X obj 199 442 r \$0-dry-wet-mix;
#N canvas 440 511 817 293 write-to-buffer 0;
#X obj 36 40 inlet~;
#X obj 96 40 inlet~;
#X msg 236 189 set \$1 1 1;
#X obj 323 142 + 3;
#X msg 323 166 resize \$1;
#X msg 395 136 const 0;
#X obj 36 150 tabsend~ \$0-left;
#X obj 96 124 tabsend~ \$0-right;
#X obj 236 215 block~ 1 1 1;
#X obj 236 122 pow;
#X msg 236 94 2, f 1;
#X obj 236 40 inlet;
#X obj 422 185 array define -yrange -1 1 -pix 200 100 \$0-left 4;
#X obj 421 215 array define -yrange -1 1 -pix 200 100 \$0-right 4;
#X obj 236 69 t b f b;
#X obj 36 64 hip~ 10;
#X obj 96 64 hip~ 10;
#X obj 366 12 loadbang;
#X msg 366 36 0;
#X connect 0 0 15 0;
#X connect 1 0 16 0;
#X connect 2 0 8 0;
#X connect 3 0 4 0;
#X connect 4 0 12 0;
#X connect 4 0 13 0;
#X connect 5 0 12 0;
#X connect 5 0 13 0;
#X connect 9 0 2 0;
#X connect 9 0 3 0;
#X connect 10 0 9 0;
#X connect 11 0 14 0;
#X connect 14 0 10 0;
#X connect 14 1 9 1;
#X connect 14 2 5 0;
#X connect 15 0 6 0;
#X connect 16 0 7 0;
#X connect 17 0 18 0;
#X connect 18 0 14 0;
#X restore 121 262 pd write-to-buffer;
#N canvas 601 544 699 289 read-from-buffer 0;
#X obj 43 212 outlet~;
#X obj 163 212 outlet~;
#X obj 43 175 tabosc4~ \$0-left;
#X obj 163 175 tabosc4~ \$0-right;
#X obj 163 137 sig~ 200;
#X obj 316 30 inlet;
#X obj 43 30 inlet;
#X msg 316 59 set \$1 1 8;
#X obj 43 136 sig~ 200;
#X obj 316 89 block~ 1 1 8;
#X obj 163 30 inlet;
#X connect 2 0 0 0;
#X connect 3 0 1 0;
#X connect 4 0 3 0;
#X connect 5 0 7 0;
#X connect 6 0 8 0;
#X connect 7 0 9 0;
#X connect 8 0 2 0;
#X connect 10 0 4 0;
#X restore 120 361 pd read-from-buffer;
#X obj 244 236 r \$0-block-size-write;
#X obj 263 331 r \$0-block-size-read;
#X obj 518 90 s \$0-block-size-write;
#X obj 518 17 inlet;
#X obj 200 470 loadbang;
#X msg 200 494 1;
#X msg 224 137 0;
#X obj 298 41 clip 1 20;
#X obj 518 65 clip 0 12;
#X obj 518 41 i;
#X text 521 212 Audio In 1;
#X text 521 232 Audio In 2;
#X obj 207 41 clip 0 1;
#X text 521 252 Audio Volume 0 - 1 \, init 0;
#X text 521 272 Gain 1 - 20 \, init 1;
#X text 521 292 Dry-Wet Mix \, 0-1 \, init 1 (100% processed signal)
;
#X text 521 312 Write block size 0-12 pow 2 \, init 0;
#X text 520 187 INLETS (left to right):;
#X text 521 382 You can send values to \$0-block-size-read but rapid
changes can crash the patch.;
#X obj 673 16 inlet;
#X obj 673 39 abs;
#X obj 673 65 s \$0-freq-l;
#X obj 763 16 inlet;
#X obj 763 39 abs;
#X obj 763 65 s \$0-freq-r;
#X obj 120 305 r \$0-freq-l;
#X obj 175 328 r \$0-freq-r;
#X text 521 332 Playback OSC left Frequency \, init 200;
#X text 521 352 Playback OSC right Frequency \, init 200;
#N canvas 0 23 436 346 MIT 0;
#X text 19 25 Copyright 2020 Tobias Hartmann Permission is hereby granted
\, free of charge \, to any person obtaining a copy of this software
and associated documentation files (the "Software") \, to deal in the
Software without restriction \, including without limitation the rights
to use \, copy \, modify \, merge \, publish \, distribute \, sublicense
\, and/or sell copies of the Software \, and to permit persons to whom
the Software is furnished to do so \, subject to the following conditions:
The above copyright notice and this permission notice shall be included
in all copies or substantial portions of the Software. THE SOFTWARE
IS PROVIDED "AS IS" \, WITHOUT WARRANTY OF ANY KIND \, EXPRESS OR IMPLIED
\, INCLUDING BUT NOT LIMITED TO THE WARRANTIES OF MERCHANTABILITY \,
FITNESS FOR A PARTICULAR PURPOSE AND NONINFRINGEMENT. IN NO EVENT SHALL
THE AUTHORS OR COPYRIGHT HOLDERS BE LIABLE FOR ANY CLAIM \, DAMAGES
OR OTHER LIABILITY \, WHETHER IN AN ACTION OF CONTRACT \, TORT OR OTHERWISE
\, ARISING FROM \, OUT OF OR IN CONNECTION WITH THE SOFTWARE OR THE
USE OR OTHER DEALINGS IN THE SOFTWARE.;
#X restore 524 414 pd MIT license;
#X connect 0 0 5 0;
#X connect 0 0 9 0;
#X connect 1 0 5 1;
#X connect 1 0 9 1;
#X connect 4 0 28 0;
#X connect 5 0 14 0;
#X connect 5 1 14 1;
#X connect 6 0 23 0;
#X connect 7 0 8 0;
#X connect 7 0 22 0;
#X connect 8 0 5 3;
#X connect 9 0 2 0;
#X connect 9 1 3 0;
#X connect 10 0 11 0;
#X connect 11 0 12 0;
#X connect 13 0 9 4;
#X connect 15 0 9 2;
#X connect 15 1 9 3;
#X connect 16 0 14 2;
#X connect 17 0 15 2;
#X connect 19 0 25 0;
#X connect 20 0 21 0;
#X connect 21 0 9 4;
#X connect 22 0 5 2;
#X connect 23 0 5 3;
#X connect 24 0 18 0;
#X connect 25 0 24 0;
#X connect 28 0 5 2;
#X connect 35 0 36 0;
#X connect 36 0 37 0;
#X connect 38 0 39 0;
#X connect 39 0 40 0;
#X connect 41 0 15 0;
#X connect 42 0 15 1;
