#N canvas 555 164 496 628 12;
#X obj 31 383 one_sample_osc, f 20;
#X obj 31 527 *~ 0;
#X obj 84 527 *~ 0;
#X obj 31 560 dac~ 1 2;
#X obj 298 458 hsl 128 15 0 1 0 0 empty empty OUTPUT-Volume -2 -8 0
10 -228856 -1 -1 12700 1;
#N canvas 951 503 450 486 sound-source 0;
#X obj 203 178 adc~ 1 2;
#N canvas 0 23 643 300 input-selector 0;
#X obj 47 87 inlet~;
#X obj 179 87 inlet~;
#X obj 47 198 outlet~;
#X obj 311 127 vline~;
#X obj 179 133 -~;
#X obj 179 158 *~;
#X obj 107 87 inlet~;
#X obj 241 87 inlet~;
#X obj 241 133 -~;
#X obj 241 159 *~;
#X obj 107 198 outlet~;
#X obj 311 67 r \$0-s-input-selector-example;
#X connect 0 0 4 1;
#X connect 0 0 2 0;
#X connect 1 0 4 0;
#X connect 3 0 5 1;
#X connect 3 0 9 1;
#X connect 4 0 5 0;
#X connect 5 0 2 0;
#X connect 6 0 8 1;
#X connect 6 0 10 0;
#X connect 7 0 8 0;
#X connect 8 0 9 0;
#X connect 9 0 10 0;
#X connect 11 0 3 0;
#X restore 33 228 pd input-selector;
#N canvas 941 334 450 491 audiofile-playback 0;
#X obj 107 136 openpanel;
#X msg 107 160 set open \$1;
#X msg 15 304 1, f 1;
#X msg 137 301 0, f 1;
#X obj 15 271 t b b;
#X obj 202 132 loadbang;
#X obj 15 246 r \$0-s-play;
#X obj 137 273 r \$0-s-stop;
#X obj 212 160 r \$0-s-load-example-sf;
#X obj 107 106 r \$0-s-open-soundfile;
#X obj 107 389 outlet~;
#X obj 177 389 outlet~;
#X obj 107 332 readsf~ 2;
#X msg 107 221 open audio/example.wav;
#X msg 202 190 set open audio/example.wav;
#X connect 0 0 1 0;
#X connect 1 0 13 0;
#X connect 2 0 12 0;
#X connect 3 0 12 0;
#X connect 4 0 2 0;
#X connect 4 1 13 0;
#X connect 5 0 14 0;
#X connect 6 0 4 0;
#X connect 7 0 3 0;
#X connect 8 0 14 0;
#X connect 9 0 0 0;
#X connect 12 0 10 0;
#X connect 12 1 11 0;
#X connect 12 2 4 0;
#X connect 13 0 12 0;
#X connect 14 0 13 0;
#X restore 33 178 pd audiofile-playback;
#X obj 33 302 outlet~;
#X obj 149 302 outlet~;
#X obj 244 297 env~;
#X obj 244 321 - 100;
#X obj 243 345 s \$0-input-monitor-example;
#X obj 16 88 bng 15 250 50 0 \$0-s-play \$0-r-play PLAY 17 7 0 10 -204786
-1 -1;
#X obj 16 108 bng 15 250 50 0 \$0-s-stop \$0-r-stop STOP 17 7 0 10
-261682 -1 -1;
#X obj 65 88 bng 15 250 50 0 \$0-s-load-example-sf \$0-r-load-example-sf
Load_Example_Soundfile 17 7 0 10 -228856 -1 -1;
#X obj 65 108 bng 15 250 50 0 \$0-s-open-soundfile \$0-r-open-soundfile
Open_Soundfile 17 7 0 10 -228856 -1 -1;
#X obj 16 48 vradio 15 1 0 2 \$0-s-input-selector-example \$0-r-input-selector-example
empty 0 -8 0 10 -228856 -1 -1 0;
#X text 35 60 Microphone;
#X text 35 44 Play Soundfile;
#X obj 244 42 vu 15 80 \$0-input-monitor-example empty -1 -8 0 10 -99865
-1 0 0;
#X connect 0 0 1 2;
#X connect 0 1 1 3;
#X connect 1 0 3 0;
#X connect 1 0 5 0;
#X connect 1 1 4 0;
#X connect 1 1 5 0;
#X connect 2 0 1 0;
#X connect 2 1 1 1;
#X connect 5 0 6 0;
#X connect 6 0 7 0;
#X coords 0 -1 1 1 260 120 2 10 10;
#X restore 31 17 pd sound-source;
#X obj 298 154 hsl 128 15 0 1 0 0 empty empty INPUT-Volume -2 -8 0
10 -228856 -1 -1 12200 1;
#X obj 298 191 hsl 128 15 1 20 0 0 empty empty INPUT-Gain -2 -8 0 10
-228856 -1 -1 0 1;
#X obj 298 231 hsl 128 15 0 1 0 0 empty empty MIX-Dry-Wet -2 -8 0 10
-228856 -1 -1 12700 1;
#X obj 298 271 hsl 128 15 0 12 0 0 empty empty WRITE-Block-Size -2
-8 0 10 -228856 -1 -1 0 1;
#X floatatom 295 303 5 0 10000 1 PLAYBACK-Frequency - -;
#X obj 295 357 * 1;
#X msg 330 338 1, f 1;
#X msg 350 338 10, f 2;
#X msg 375 338 100;
#X connect 0 0 1 0;
#X connect 0 1 2 0;
#X connect 1 0 3 0;
#X connect 2 0 3 1;
#X connect 4 0 2 1;
#X connect 4 0 1 1;
#X connect 5 0 0 0;
#X connect 5 1 0 1;
#X connect 6 0 0 2;
#X connect 7 0 0 3;
#X connect 8 0 0 4;
#X connect 9 0 0 5;
#X connect 10 0 11 0;
#X connect 11 0 0 6;
#X connect 12 0 11 1;
#X connect 13 0 11 1;
#X connect 14 0 11 1;
