#N canvas 300 301 980 657 12;
#X obj 21 17 inlet~;
#X obj 71 17 inlet~;
#X obj 21 577 outlet~;
#X obj 151 577 outlet~;
#X obj 221 17 inlet;
#X obj 121 164 expr~ $v1 * $f3 * $f4 \; $v2 * $f3 * $f4;
#X obj 272 17 inlet;
#X obj 286 87 loadbang;
#X msg 286 121 1;
#N canvas 472 250 450 300 stereo_crossfade 0;
#X obj 47 87 inlet~;
#X obj 179 87 inlet~;
#X obj 47 198 outlet~;
#X obj 311 87 inlet;
#X obj 311 127 vline~;
#X obj 179 133 -~;
#X obj 179 158 *~;
#X obj 107 87 inlet~;
#X obj 241 87 inlet~;
#X obj 241 133 -~;
#X obj 241 159 *~;
#X obj 107 198 outlet~;
#X connect 0 0 5 1;
#X connect 0 0 2 0;
#X connect 1 0 5 0;
#X connect 3 0 4 0;
#X connect 4 0 6 1;
#X connect 4 0 10 1;
#X connect 5 0 6 0;
#X connect 6 0 2 0;
#X connect 7 0 9 1;
#X connect 7 0 11 0;
#X connect 8 0 9 0;
#X connect 9 0 10 0;
#X connect 10 0 11 0;
#X restore 21 536 pd stereo_crossfade;
#X obj 388 17 inlet;
#X obj 388 41 clip 0 1;
#X obj 388 66 s \$0-dry-wet-mix;
#X obj 199 442 r \$0-dry-wet-mix;
#N canvas 440 511 817 293 write-to-buffer 0;
#X obj 36 40 inlet~;
#X obj 96 40 inlet~;
#X msg 236 189 set \$1 1 1;
#X obj 323 142 + 3;
#X msg 323 166 resize \$1;
#X msg 395 136 const 0;
#X obj 36 150 tabsend~ \$0-left;
#X obj 96 124 tabsend~ \$0-right;
#X obj 236 215 block~ 1 1 1;
#X obj 236 122 pow;
#X msg 236 94 2, f 1;
#X obj 236 40 inlet;
#X obj 422 185 array define -yrange -1 1 -pix 200 100 \$0-left 4;
#X obj 421 215 array define -yrange -1 1 -pix 200 100 \$0-right 4;
#X obj 236 69 t b f b;
#X obj 36 64 hip~ 10;
#X obj 96 64 hip~ 10;
#X connect 0 0 15 0;
#X connect 1 0 16 0;
#X connect 2 0 8 0;
#X connect 3 0 4 0;
#X connect 4 0 12 0;
#X connect 4 0 13 0;
#X connect 5 0 12 0;
#X connect 5 0 13 0;
#X connect 9 0 2 0;
#X connect 9 0 3 0;
#X connect 10 0 9 0;
#X connect 11 0 14 0;
#X connect 14 0 10 0;
#X connect 14 1 9 1;
#X connect 14 2 5 0;
#X connect 15 0 6 0;
#X connect 16 0 7 0;
#X restore 121 262 pd write-to-buffer;
#N canvas 601 544 699 289 read-from-buffer 1;
#X obj 43 212 outlet~;
#X obj 169 212 outlet~;
#X obj 43 175 tabosc4~ \$0-left;
#X obj 169 175 tabosc4~ \$0-right;
#X obj 169 137 sig~ 200;
#X obj 316 30 inlet;
#X obj 43 30 inlet;
#X msg 316 59 set \$1 1 8;
#X obj 43 136 sig~ 200;
#X obj 316 89 block~ 1 1 16;
#X floatatom 170 51 5 0 0 0 - - -;
#X connect 2 0 0 0;
#X connect 3 0 1 0;
#X connect 4 0 3 0;
#X connect 5 0 7 0;
#X connect 6 0 4 0;
#X connect 6 0 8 0;
#X connect 7 0 9 0;
#X connect 8 0 2 0;
#X connect 10 0 4 0;
#X restore 120 331 pd read-from-buffer;
#X obj 244 236 r \$0-block-size-write;
#X obj 250 305 r \$0-block-size-read;
#X obj 120 305 r \$0-freq;
#X obj 518 90 s \$0-block-size-write;
#X obj 518 17 inlet;
#X obj 693 16 inlet;
#X obj 693 65 s \$0-freq;
#X text 469 153 Audio In;
#X text 472 194 Gain 1 - 100 \, init 1;
#X text 472 174 Volume 0 - 1 \, init 1;
#X text 474 216 Dry Wet blend \, 0-1 \, init 1;
#X obj 200 470 loadbang;
#X text 473 235 Block size write inpput to the pow of 2 \, 0-8 init
1;
#X text 474 266 Playback OSC Frqe \, init 200;
#X msg 200 494 1;
#X msg 236 121 0;
#X obj 272 41 clip 1 20;
#X obj 518 65 clip 0 12;
#X obj 518 41 i;
#X obj 693 40 abs;
#X connect 0 0 5 0;
#X connect 0 0 9 0;
#X connect 1 0 5 1;
#X connect 1 0 9 1;
#X connect 4 0 5 2;
#X connect 5 0 14 0;
#X connect 5 1 14 1;
#X connect 6 0 32 0;
#X connect 7 0 8 0;
#X connect 7 0 31 0;
#X connect 8 0 5 3;
#X connect 9 0 2 0;
#X connect 9 1 3 0;
#X connect 10 0 11 0;
#X connect 11 0 12 0;
#X connect 13 0 9 4;
#X connect 15 0 9 2;
#X connect 15 1 9 3;
#X connect 16 0 14 2;
#X connect 17 0 15 1;
#X connect 18 0 15 0;
#X connect 20 0 34 0;
#X connect 21 0 35 0;
#X connect 27 0 30 0;
#X connect 30 0 9 4;
#X connect 31 0 5 2;
#X connect 32 0 5 3;
#X connect 33 0 19 0;
#X connect 34 0 33 0;
#X connect 35 0 22 0;
