#N canvas 939 134 628 473 10;
#N canvas 0 23 436 346 MIT 0;
#X text 19 25 Copyright 2020 Tobias Hartmann Permission is hereby granted
\, free of charge \, to any person obtaining a copy of this software
and associated documentation files (the "Software") \, to deal in the
Software without restriction \, including without limitation the rights
to use \, copy \, modify \, merge \, publish \, distribute \, sublicense
\, and/or sell copies of the Software \, and to permit persons to whom
the Software is furnished to do so \, subject to the following conditions:
The above copyright notice and this permission notice shall be included
in all copies or substantial portions of the Software. THE SOFTWARE
IS PROVIDED "AS IS" \, WITHOUT WARRANTY OF ANY KIND \, EXPRESS OR IMPLIED
\, INCLUDING BUT NOT LIMITED TO THE WARRANTIES OF MERCHANTABILITY \,
FITNESS FOR A PARTICULAR PURPOSE AND NONINFRINGEMENT. IN NO EVENT SHALL
THE AUTHORS OR COPYRIGHT HOLDERS BE LIABLE FOR ANY CLAIM \, DAMAGES
OR OTHER LIABILITY \, WHETHER IN AN ACTION OF CONTRACT \, TORT OR OTHERWISE
\, ARISING FROM \, OUT OF OR IN CONNECTION WITH THE SOFTWARE OR THE
USE OR OTHER DEALINGS IN THE SOFTWARE.;
#X restore 354 334 pd MIT license;
#X obj 33 8 hsl 100 15 0 1 0 0 \$0-s-in-vol \$0-r-in-vol empty -2 -8
0 10 -228856 -1 -1 0 1;
#X obj 33 27 hsl 100 15 0 20 0 0 \$0-s-in-gain \$0-r-in-gain empty
-2 -8 0 10 -228856 -1 -1 0 1;
#X text 202 26 In Gain;
#X obj 33 46 hsl 100 15 0 1 0 0 \$0-s-dry-wet \$0-r-dry-wet empty -2
-8 0 10 -228856 -1 -1 0 1;
#X text 202 46 Dry/Wet Mix;
#X obj 33 122 hsl 100 15 0 3 0 0 \$0-s-l-write-speed \$0-r-l-write-speed
empty -2 -8 0 10 -191407 -1 -1 0 1;
#X obj 33 141 hsl 100 15 0 20000 0 0 \$0-s-l-osc-freq \$0-r-l-osc-freq
empty -2 -8 0 10 -191407 -1 -1 0 1;
#X obj 216 141 hsl 100 15 0 20000 0 0 \$0-s-r-osc-freq \$0-r-r-osc-freq
empty -2 -8 0 10 -195568 -1 -1 0 1;
#X obj 138 8 nbx 5 15 0 1 0 0 empty \$0-r-in-vol empty 0 -8 0 10 -228856
-1 -1 0 256;
#X obj 138 27 nbx 5 15 0 20 0 0 empty \$0-r-in-gain empty 0 -8 0 10
-228856 -1 -1 0 256;
#X obj 138 46 nbx 5 15 0 1 0 0 empty \$0-r-dry-wet empty 0 -8 0 10
-228856 -1 -1 0 256;
#X obj 138 122 nbx 5 15 0 3 0 0 empty \$0-r-l-write-speed empty 0 -8
0 10 -191407 -1 -1 0 256;
#X obj 138 141 nbx 5 15 0 20000 0 0 empty \$0-r-l-osc-freq empty 0
-8 0 10 -195568 -1 -1 0 256;
#X obj 321 141 nbx 5 15 0 20000 0 0 empty \$0-r-r-osc-freq empty 0
-8 0 10 -195568 -1 -1 0 256;
#N canvas 0 23 142 116 (subpatch) 0;
#X obj 16 10 inlet;
#X msg 16 31 set \$1;
#X obj 16 52 outlet;
#X connect 0 0 1 0;
#X connect 1 0 2 0;
#X restore 30 195 pd;
#N canvas 0 23 142 116 (subpatch) 0;
#X obj 16 10 inlet;
#X msg 16 31 set \$1;
#X obj 16 52 outlet;
#X connect 0 0 1 0;
#X connect 1 0 2 0;
#X restore 30 216 pd;
#N canvas 0 23 142 116 (subpatch) 0;
#X obj 16 10 inlet;
#X msg 16 31 set \$1;
#X obj 16 52 outlet;
#X connect 0 0 1 0;
#X connect 1 0 2 0;
#X restore 30 279 pd;
#N canvas 0 23 274 213 (subpatch) 0;
#X obj 16 10 inlet;
#X msg 16 61 set \$1;
#X obj 16 132 outlet;
#X obj 122 85 s \$0-r-r-osc-freq;
#X obj 122 65 spigot 0;
#X obj 167 30 inlet;
#X connect 0 0 1 0;
#X connect 0 0 4 0;
#X connect 1 0 2 0;
#X connect 4 0 3 0;
#X connect 5 0 4 1;
#X restore 140 229 pd;
#N canvas 0 23 142 116 (subpatch) 0;
#X obj 16 10 inlet;
#X msg 16 31 set \$1;
#X obj 16 52 outlet;
#X connect 0 0 1 0;
#X connect 1 0 2 0;
#X restore 213 175 pd;
#X obj 33 65 hsl 100 15 0 5000 0 0 \$0-s-in-hip \$0-r-in-hip empty
-2 -8 0 10 -228856 -1 -1 0 1;
#X obj 138 65 nbx 5 15 0 5000 0 0 empty \$0-r-in-hip empty 0 -8 0 10
-228856 -1 -1 0 256;
#N canvas 0 23 142 116 (subpatch) 0;
#X obj 16 10 inlet;
#X msg 16 31 set \$1;
#X obj 16 52 outlet;
#X connect 0 0 1 0;
#X connect 1 0 2 0;
#X restore 30 237 pd;
#X obj 33 84 hsl 100 15 100 20000 0 0 \$0-s-in-lop \$0-r-in-lop empty
-2 -8 0 10 -228856 -1 -1 0 1;
#X obj 138 84 nbx 5 15 100 20000 0 0 empty \$0-r-in-lop empty 0 -8
0 10 -228856 -1 -1 100 256;
#N canvas 0 23 142 116 (subpatch) 0;
#X obj 16 10 inlet;
#X msg 16 31 set \$1;
#X obj 16 52 outlet;
#X connect 0 0 1 0;
#X connect 1 0 2 0;
#X restore 30 258 pd;
#X obj 195 141 tgl 15 0 \$0-s-link-osc-freq \$0-r-link-osc-freq empty
17 7 0 10 -191407 -1 -1 1 1;
#X obj 196 217 loadbang;
#X msg 196 238 1;
#X text 202 6 In Volume;
#X text 202 65 In Lo-Cut;
#X text 202 84 In Hi-Cut;
#X obj 216 122 hsl 100 15 0 3 0 0 \$0-s-r-write-speed \$0-r-r-write-speed
empty -2 -8 0 10 -191407 -1 -1 0 1;
#X obj 321 122 nbx 5 15 0 3 0 0 empty \$0-r-r-write-speed empty 0 -8
0 10 -191407 -1 -1 0 256;
#X obj 195 122 tgl 15 0 \$0-s-link-write-speed \$0-r-link-write-speed
empty 17 7 0 10 -191407 -1 -1 1 1;
#N canvas 0 23 142 116 (subpatch) 0;
#X obj 16 10 inlet;
#X msg 16 31 set \$1;
#X obj 16 52 outlet;
#X connect 0 0 1 0;
#X connect 1 0 2 0;
#X restore 213 196 pd;
#N canvas 323 264 274 213 (subpatch) 0;
#X obj 16 10 inlet;
#X msg 16 61 set \$1;
#X obj 16 132 outlet;
#X obj 122 65 spigot 0;
#X obj 167 30 inlet;
#X obj 122 85 s \$0-r-r-write-speed;
#X connect 0 0 1 0;
#X connect 0 0 3 0;
#X connect 1 0 2 0;
#X connect 3 0 5 0;
#X connect 4 0 3 1;
#X restore 139 199 pd;
#X text 189 106 Link;
#X text 68 104 ______Left______;
#X text 245 104 ______Right______;
#N canvas 117 76 843 811 fx-engine 0;
#X obj 19 15 inlet~;
#X obj 79 15 inlet~;
#X obj 19 765 outlet~;
#X obj 130 765 outlet~;
#X obj 99 217 clip~ -1 1;
#X obj 192 217 clip~ -1 1;
#X obj 123 288 loadbang;
#X msg 99 333 1, f 1;
#X msg 123 315 tempo 1 msec;
#X obj 123 448 metro 1;
#X obj 199 398 metro 1;
#X obj 535 503 v fx_inc1;
#X obj 545 481 v fx_inc2;
#X obj 615 501 v fx_wavetab_1_size;
#X obj 625 481 v fx_wavetab_2_size;
#X obj 123 480 expr fx_wavetab_1[fx_inc1 - 1] = onesample_fx_in[0]
\; fx_inc1 = fx_inc1 + 1 \; if(fx_inc1==fx_wavetab_1_size \, fx_inc1=0
\, fx_inc1);
#X obj 535 432 loadbang;
#X msg 535 458 0;
#X msg 615 458 515;
#X obj 99 245 fexpr~ onesample_fx_in[0] = $x1[0] * $f3 * $f4 \; onesample_fx_in[1]
= $x2[0] * $f3 * $f4;
#X obj 509 162 loadbang;
#X msg 509 191 1;
#X msg 469 191 0;
#X obj 378 207 clip 1 20;
#X obj 285 207 clip 0 1;
#X obj 235 347 moses 0;
#X obj 315 347 moses 0;
#N canvas 472 250 450 300 stereo_crossfade 0;
#X obj 47 87 inlet~;
#X obj 179 87 inlet~;
#X obj 47 198 outlet~;
#X obj 311 87 inlet;
#X obj 311 127 vline~;
#X obj 179 133 -~;
#X obj 179 158 *~;
#X obj 107 87 inlet~;
#X obj 241 87 inlet~;
#X obj 241 133 -~;
#X obj 241 159 *~;
#X obj 107 198 outlet~;
#X connect 0 0 5 1;
#X connect 0 0 2 0;
#X connect 1 0 5 0;
#X connect 3 0 4 0;
#X connect 4 0 6 1;
#X connect 4 0 10 1;
#X connect 5 0 6 0;
#X connect 6 0 2 0;
#X connect 7 0 9 1;
#X connect 7 0 11 0;
#X connect 8 0 9 0;
#X connect 9 0 10 0;
#X connect 10 0 11 0;
#X restore 19 735 pd stereo_crossfade;
#X obj 208 689 loadbang;
#X msg 208 713 1;
#X obj 99 74 hip~ 10;
#X obj 192 74 hip~ 10;
#N canvas 736 464 557 255 tabosc4s 0;
#X obj 24 39 inlet;
#X obj 174 39 inlet;
#X obj 24 122 tabosc4~ fx_wavetab_1;
#X obj 174 122 tabosc4~ fx_wavetab_2;
#X obj 24 101 sig~ 200;
#X obj 174 101 sig~ 200;
#X obj 24 183 outlet~;
#X obj 174 183 outlet~;
#X obj 366 36 block~ 256 1 8;
#X connect 0 0 4 0;
#X connect 1 0 5 0;
#X connect 2 0 6 0;
#X connect 3 0 7 0;
#X connect 4 0 2 0;
#X connect 5 0 3 0;
#X restore 119 592 pd tabosc4s;
#X text 235 292 Write speed to left 1 sample buffer in milliseconds
\, init 1;
#X text 316 305 Write speed to right 1 sample buffer in milliseconds
\, init 1;
#X obj 199 431 expr fx_wavetab_2[fx_inc2 - 1] = onesample_fx_in[1]
\; fx_inc2 = fx_inc2 + 1 \; if(fx_inc2==fx_wavetab_2_size \, fx_inc2=0
\, fx_inc2);
#X text 269 539 Playback OSC left Frequency \, init 200;
#X text 269 559 Playback OSC right Frequency \, init 200;
#X obj 119 547 param.get 5;
#X obj 194 547 param.get 6;
#X obj 119 568 abs;
#X obj 194 568 abs;
#X obj 208 665 clip 0 1;
#X text 206 626 Dry-Wet Mix \, 0-1 \, init 1 (100% processed signal)
;
#X obj 208 643 param.get 3;
#X obj 99 115 hip~;
#X obj 192 114 hip~;
#X obj 99 135 hip~;
#X obj 192 135 hip~;
#X obj 99 157 lop~;
#X obj 99 178 lop~;
#X obj 192 157 lop~;
#X obj 192 178 lop~;
#X obj 246 128 param.get 8;
#X obj 285 183 param.get 1;
#X obj 378 183 param.get 2;
#X text 283 156 Audio Volume 0 - 1 \, init 0;
#X text 373 167 Gain 1 - 20 \, init 1;
#X obj 246 81 param.get 7;
#X obj 235 326 param.get 4;
#X obj 315 326 param.get 9;
#X obj 675 28 block~ 1;
#N canvas 847 257 484 389 arrays 0;
#X msg 23 181 const 0;
#X msg 24 43 const 0;
#X obj 23 160 r s_wavetab_1_reset;
#X msg 25 277 const 0;
#X obj 25 256 r s_wavetab_2_reset;
#X obj 24 66 array define -pix 20 200 -yrange -1 1 onesample_fx_in
2;
#X obj 23 212 array define -pix 500 200 -yrange -1 1 fx_wavetab_1 515
;
#X obj 25 308 array define -pix 500 200 -yrange -1 1 fx_wavetab_2 515
;
#X connect 0 0 6 0;
#X connect 1 0 5 0;
#X connect 2 0 0 0;
#X connect 3 0 7 0;
#X connect 4 0 3 0;
#X restore 675 49 pd arrays;
#N canvas 34 274 349 537 set.parameters 0;
#X obj 16 11 param.change;
#X obj 16 90 param.set 1;
#X obj 16 67 r \$0-s-in-vol;
#X obj 16 117 r \$0-s-in-gain;
#X obj 16 140 param.set 2;
#X obj 16 166 r \$0-s-dry-wet;
#X obj 16 189 param.set 3;
#X obj 16 239 param.set 4;
#X obj 16 266 r \$0-s-l-osc-freq;
#X obj 16 289 param.set 5;
#X obj 16 317 r \$0-s-r-osc-freq;
#X obj 16 340 param.set 6;
#X obj 16 367 r \$0-s-in-hip;
#X obj 16 390 param.set 7;
#X obj 16 418 r \$0-s-in-lop;
#X obj 16 441 param.set 8;
#X obj 16 216 r \$0-s-l-write-speed;
#X obj 156 216 r \$0-s-r-write-speed;
#X obj 156 239 param.set 9;
#X connect 2 0 1 0;
#X connect 3 0 4 0;
#X connect 5 0 6 0;
#X connect 8 0 9 0;
#X connect 10 0 11 0;
#X connect 12 0 13 0;
#X connect 14 0 15 0;
#X connect 16 0 7 0;
#X connect 17 0 18 0;
#X restore 675 99 pd set.parameters;
#N canvas 271 150 356 616 get.parameters 0;
#X obj 11 21 param.get 1;
#X msg 11 43 set \$1;
#X obj 11 65 s \$0-r-in-vol;
#X msg 11 113 set \$1;
#X obj 11 91 param.get 2;
#X obj 11 135 s \$0-r-in-gain;
#X msg 11 183 set \$1;
#X obj 11 161 param.get 3;
#X obj 11 205 s \$0-r-dry-wet;
#X msg 11 253 set \$1;
#X obj 11 231 param.get 4;
#X msg 11 323 set \$1;
#X obj 11 301 param.get 5;
#X obj 11 345 s \$0-r-l-osc-freq;
#X msg 11 393 set \$1;
#X obj 11 371 param.get 6;
#X obj 11 415 s \$0-r-r-osc-freq;
#X msg 11 463 set \$1;
#X obj 11 441 param.get 7;
#X obj 11 485 s \$0-r-in-hip;
#X msg 11 533 set \$1;
#X obj 11 511 param.get 8;
#X obj 11 555 s \$0-r-in-lop;
#X obj 11 275 s \$0-r-l-write-speed;
#X msg 151 253 set \$1;
#X obj 151 231 param.get 9;
#X obj 151 275 s \$0-r-r-write-speed;
#X connect 0 0 1 0;
#X connect 1 0 2 0;
#X connect 3 0 5 0;
#X connect 4 0 3 0;
#X connect 6 0 8 0;
#X connect 7 0 6 0;
#X connect 9 0 23 0;
#X connect 10 0 9 0;
#X connect 11 0 13 0;
#X connect 12 0 11 0;
#X connect 14 0 16 0;
#X connect 15 0 14 0;
#X connect 17 0 19 0;
#X connect 18 0 17 0;
#X connect 20 0 22 0;
#X connect 21 0 20 0;
#X connect 24 0 26 0;
#X connect 25 0 24 0;
#X restore 675 120 pd get.parameters;
#X connect 0 0 30 0;
#X connect 0 0 27 0;
#X connect 1 0 31 0;
#X connect 1 0 27 1;
#X connect 4 0 19 0;
#X connect 5 0 19 1;
#X connect 6 0 7 0;
#X connect 6 0 8 0;
#X connect 7 0 9 0;
#X connect 7 0 10 0;
#X connect 8 0 9 0;
#X connect 8 0 10 0;
#X connect 9 0 15 0;
#X connect 10 0 35 0;
#X connect 16 0 17 0;
#X connect 16 0 18 0;
#X connect 17 0 11 0;
#X connect 17 0 12 0;
#X connect 18 0 13 0;
#X connect 18 0 14 0;
#X connect 20 0 21 0;
#X connect 20 0 22 0;
#X connect 21 0 23 0;
#X connect 22 0 24 0;
#X connect 23 0 19 3;
#X connect 24 0 19 2;
#X connect 25 1 9 1;
#X connect 26 1 10 1;
#X connect 27 0 2 0;
#X connect 27 1 3 0;
#X connect 28 0 29 0;
#X connect 29 0 27 4;
#X connect 30 0 45 0;
#X connect 31 0 46 0;
#X connect 32 0 27 2;
#X connect 32 1 27 3;
#X connect 38 0 40 0;
#X connect 39 0 41 0;
#X connect 40 0 32 0;
#X connect 41 0 32 1;
#X connect 42 0 27 4;
#X connect 44 0 42 0;
#X connect 45 0 47 0;
#X connect 46 0 48 0;
#X connect 47 0 49 0;
#X connect 48 0 51 0;
#X connect 49 0 50 0;
#X connect 50 0 4 0;
#X connect 51 0 52 0;
#X connect 52 0 5 0;
#X connect 53 0 49 1;
#X connect 53 0 51 1;
#X connect 53 0 50 1;
#X connect 53 0 52 1;
#X connect 54 0 24 0;
#X connect 55 0 23 0;
#X connect 58 0 45 1;
#X connect 58 0 46 1;
#X connect 58 0 47 1;
#X connect 58 0 48 1;
#X connect 59 0 25 0;
#X connect 60 0 26 0;
#X restore 354 266 pd fx-engine;
#X obj 354 221 adc~ 1 2;
#X obj 354 307 dac~ 1 2;
#X text 440 265 <---;
#X text 383 123 Write Speed;
#X text 383 142 OSC Freq;
#X connect 1 0 15 0;
#X connect 2 0 16 0;
#X connect 4 0 17 0;
#X connect 6 0 36 0;
#X connect 7 0 18 0;
#X connect 8 0 19 0;
#X connect 9 0 1 0;
#X connect 10 0 2 0;
#X connect 11 0 4 0;
#X connect 12 0 6 0;
#X connect 13 0 7 0;
#X connect 14 0 8 0;
#X connect 15 0 9 0;
#X connect 16 0 10 0;
#X connect 17 0 11 0;
#X connect 18 0 13 0;
#X connect 19 0 14 0;
#X connect 20 0 22 0;
#X connect 21 0 20 0;
#X connect 22 0 21 0;
#X connect 23 0 25 0;
#X connect 24 0 23 0;
#X connect 25 0 24 0;
#X connect 26 0 18 1;
#X connect 27 0 28 0;
#X connect 28 0 26 0;
#X connect 28 0 34 0;
#X connect 32 0 35 0;
#X connect 33 0 32 0;
#X connect 34 0 36 1;
#X connect 35 0 33 0;
#X connect 36 0 12 0;
#X connect 40 0 42 0;
#X connect 40 1 42 1;
#X connect 41 0 40 0;
#X connect 41 1 40 1;
#X coords 0 -1 1 1 460 160 1 2 2;
