#N canvas 175 95 772 865 10;
#X obj 121 474 expr~ $v1 * $f3 * $f4 \; $v2 * $f3 * $f4;
#X obj 593 352 loadbang;
#X msg 593 375 1;
#N canvas 472 250 450 300 stereo_crossfade 0;
#X obj 47 87 inlet~;
#X obj 179 87 inlet~;
#X obj 47 198 outlet~;
#X obj 311 87 inlet;
#X obj 311 127 vline~;
#X obj 179 133 -~;
#X obj 179 158 *~;
#X obj 107 87 inlet~;
#X obj 241 87 inlet~;
#X obj 241 133 -~;
#X obj 241 159 *~;
#X obj 107 198 outlet~;
#X connect 0 0 5 1;
#X connect 0 0 2 0;
#X connect 1 0 5 0;
#X connect 3 0 4 0;
#X connect 4 0 6 1;
#X connect 4 0 10 1;
#X connect 5 0 6 0;
#X connect 6 0 2 0;
#X connect 7 0 9 1;
#X connect 7 0 11 0;
#X connect 8 0 9 0;
#X connect 9 0 10 0;
#X connect 10 0 11 0;
#X restore 21 776 pd stereo_crossfade;
#X obj 250 707 clip 0 1;
#N canvas 440 511 817 293 write-to-buffer 0;
#X obj 36 40 inlet~;
#X obj 96 40 inlet~;
#X msg 236 189 set \$1 1 1;
#X obj 323 142 + 3;
#X msg 323 166 resize \$1;
#X msg 395 136 const 0;
#X obj 36 150 tabsend~ \$0-left;
#X obj 96 124 tabsend~ \$0-right;
#X obj 236 215 block~ 1 1 1;
#X obj 236 122 pow;
#X msg 236 94 2, f 1;
#X obj 236 40 inlet;
#X obj 422 185 array define -yrange -1 1 -pix 200 100 \$0-left 4;
#X obj 421 215 array define -yrange -1 1 -pix 200 100 \$0-right 4;
#X obj 236 69 t b f b;
#X obj 36 64 hip~ 10;
#X obj 96 64 hip~ 10;
#X obj 366 12 loadbang;
#X msg 366 36 0;
#X connect 0 0 15 0;
#X connect 1 0 16 0;
#X connect 2 0 8 0;
#X connect 3 0 4 0;
#X connect 4 0 12 0;
#X connect 4 0 13 0;
#X connect 5 0 12 0;
#X connect 5 0 13 0;
#X connect 9 0 2 0;
#X connect 9 0 3 0;
#X connect 10 0 9 0;
#X connect 11 0 14 0;
#X connect 14 0 10 0;
#X connect 14 1 9 1;
#X connect 14 2 5 0;
#X connect 15 0 6 0;
#X connect 16 0 7 0;
#X connect 17 0 18 0;
#X connect 18 0 14 0;
#X restore 121 532 pd write-to-buffer;
#N canvas 601 544 699 289 read-from-buffer 0;
#X obj 43 212 outlet~;
#X obj 163 212 outlet~;
#X obj 43 175 tabosc4~ \$0-left;
#X obj 163 175 tabosc4~ \$0-right;
#X obj 163 137 sig~ 200;
#X obj 316 30 inlet;
#X obj 43 30 inlet;
#X msg 316 59 set \$1 1 8;
#X obj 43 136 sig~ 200;
#X obj 316 89 block~ 1 1 8;
#X obj 163 30 inlet;
#X connect 2 0 0 0;
#X connect 3 0 1 0;
#X connect 4 0 3 0;
#X connect 5 0 7 0;
#X connect 6 0 8 0;
#X connect 7 0 9 0;
#X connect 8 0 2 0;
#X connect 10 0 4 0;
#X restore 120 641 pd read-from-buffer;
#X obj 250 730 loadbang;
#X msg 250 754 1;
#X msg 533 375 0;
#X obj 431 391 clip 1 20;
#X obj 340 512 clip 0 12;
#X obj 340 488 i;
#X obj 340 391 clip 0 1;
#X text 339 335 Audio Volume 0 - 1 \, init 0;
#X text 429 350 Gain 1 - 20 \, init 1;
#X text 250 658 Dry-Wet Mix \, 0-1 \, init 1 (100% processed signal)
;
#X text 345 449 Write block size 0-12 pow 2 \, init 0;
#X obj 120 610 abs;
#X obj 235 610 abs;
#X text 310 581 Playback OSC left Frequency \, init 200;
#X text 310 601 Playback OSC right Frequency \, init 200;
#N canvas 0 23 436 346 MIT 0;
#X text 19 25 Copyright 2020 Tobias Hartmann Permission is hereby granted
\, free of charge \, to any person obtaining a copy of this software
and associated documentation files (the "Software") \, to deal in the
Software without restriction \, including without limitation the rights
to use \, copy \, modify \, merge \, publish \, distribute \, sublicense
\, and/or sell copies of the Software \, and to permit persons to whom
the Software is furnished to do so \, subject to the following conditions:
The above copyright notice and this permission notice shall be included
in all copies or substantial portions of the Software. THE SOFTWARE
IS PROVIDED "AS IS" \, WITHOUT WARRANTY OF ANY KIND \, EXPRESS OR IMPLIED
\, INCLUDING BUT NOT LIMITED TO THE WARRANTIES OF MERCHANTABILITY \,
FITNESS FOR A PARTICULAR PURPOSE AND NONINFRINGEMENT. IN NO EVENT SHALL
THE AUTHORS OR COPYRIGHT HOLDERS BE LIABLE FOR ANY CLAIM \, DAMAGES
OR OTHER LIABILITY \, WHETHER IN AN ACTION OF CONTRACT \, TORT OR OTHERWISE
\, ARISING FROM \, OUT OF OR IN CONNECTION WITH THE SOFTWARE OR THE
USE OR OTHER DEALINGS IN THE SOFTWARE.;
#X restore 487 74 pd MIT license;
#X obj 21 288 adc~ 1 2;
#X obj 21 807 dac~ 1 2;
#N canvas 83 152 165 537 set.parameters 0;
#X obj 16 11 param.change;
#X obj 16 90 param.set 1;
#X obj 16 67 r \$0-s-in-vol;
#X obj 16 117 r \$0-s-in-gain;
#X obj 16 140 param.set 2;
#X obj 16 166 r \$0-s-dry-wet;
#X obj 16 189 param.set 3;
#X obj 16 216 r \$0-s-write-size;
#X obj 16 239 param.set 4;
#X obj 16 266 r \$0-s-l-osc-freq;
#X obj 16 289 param.set 5;
#X obj 16 317 r \$0-s-r-osc-freq;
#X obj 16 340 param.set 6;
#X obj 16 367 r \$0-s-in-hip;
#X obj 16 390 param.set 7;
#X obj 16 418 r \$0-s-in-lop;
#X obj 16 441 param.set 8;
#X connect 2 0 1 0;
#X connect 3 0 4 0;
#X connect 5 0 6 0;
#X connect 7 0 8 0;
#X connect 9 0 10 0;
#X connect 11 0 12 0;
#X connect 13 0 14 0;
#X connect 15 0 16 0;
#X restore 487 11 pd set.parameters;
#N canvas 271 150 169 616 get.parameters 0;
#X obj 11 21 param.get 1;
#X msg 11 43 set \$1;
#X obj 11 65 s \$0-r-in-vol;
#X msg 11 113 set \$1;
#X obj 11 91 param.get 2;
#X obj 11 135 s \$0-r-in-gain;
#X msg 11 183 set \$1;
#X obj 11 161 param.get 3;
#X obj 11 205 s \$0-r-dry-wet;
#X msg 11 253 set \$1;
#X obj 11 231 param.get 4;
#X obj 11 275 s \$0-r-write-size;
#X msg 11 323 set \$1;
#X obj 11 301 param.get 5;
#X obj 11 345 s \$0-r-l-osc-freq;
#X msg 11 393 set \$1;
#X obj 11 371 param.get 6;
#X obj 11 415 s \$0-r-r-osc-freq;
#X msg 11 463 set \$1;
#X obj 11 441 param.get 7;
#X obj 11 485 s \$0-r-in-hip;
#X msg 11 533 set \$1;
#X obj 11 511 param.get 8;
#X obj 11 555 s \$0-r-in-lop;
#X connect 0 0 1 0;
#X connect 1 0 2 0;
#X connect 3 0 5 0;
#X connect 4 0 3 0;
#X connect 6 0 8 0;
#X connect 7 0 6 0;
#X connect 9 0 11 0;
#X connect 10 0 9 0;
#X connect 12 0 14 0;
#X connect 13 0 12 0;
#X connect 15 0 17 0;
#X connect 16 0 15 0;
#X connect 18 0 20 0;
#X connect 19 0 18 0;
#X connect 21 0 23 0;
#X connect 22 0 21 0;
#X restore 487 32 pd get.parameters;
#X obj 340 369 param.get 1;
#X obj 431 369 param.get 2;
#X obj 250 675 param.get 3;
#X obj 340 466 param.get 4;
#X obj 120 589 param.get 5;
#X obj 235 589 param.get 6;
#X obj 33 8 hsl 100 15 0 1 0 0 \$0-s-in-vol \$0-r-in-vol empty -2 -8
0 10 -228856 -1 -1 0 1;
#X obj 33 27 hsl 100 15 0 20 0 0 \$0-s-in-gain \$0-r-in-gain empty
-2 -8 0 10 -228856 -1 -1 0 1;
#X text 202 26 In Gain;
#X obj 33 46 hsl 100 15 0 1 0 0 \$0-s-dry-wet \$0-r-dry-wet empty -2
-8 0 10 -228856 -1 -1 0 1;
#X text 202 46 Dry/Wet Mix;
#X obj 33 103 hsl 100 15 0 12 0 0 \$0-s-write-size \$0-r-write-size
empty -2 -8 0 10 -191407 -1 -1 0 1;
#X obj 33 142 hsl 100 15 0 20000 0 0 \$0-s-l-osc-freq \$0-r-l-osc-freq
empty -2 -8 0 10 -191407 -1 -1 0 1;
#X obj 216 142 hsl 100 15 0 20000 0 0 \$0-s-r-osc-freq \$0-r-r-osc-freq
empty -2 -8 0 10 -195568 -1 -1 0 1;
#X obj 138 8 nbx 5 15 0 1 0 0 empty \$0-r-in-vol empty 0 -8 0 10 -228856
-1 -1 0 256;
#X obj 138 27 nbx 5 15 0 20 0 0 empty \$0-r-in-gain empty 0 -8 0 10
-228856 -1 -1 0 256;
#X obj 138 46 nbx 5 15 0 1 0 0 empty \$0-r-dry-wet empty 0 -8 0 10
-228856 -1 -1 0 256;
#X obj 138 103 nbx 5 15 0 12 0 0 empty \$0-r-write-size empty 0 -8
0 10 -191407 -1 -1 0 256;
#X obj 138 142 nbx 5 15 0 20000 0 0 empty \$0-r-l-osc-freq empty 0
-8 0 10 -195568 -1 -1 0 256;
#X obj 321 142 nbx 5 15 0 20000 0 0 empty \$0-r-r-osc-freq empty 0
-8 0 10 -195568 -1 -1 0 256;
#N canvas 0 23 142 116 (subpatch) 0;
#X obj 16 10 inlet;
#X msg 16 31 set \$1;
#X obj 16 52 outlet;
#X connect 0 0 1 0;
#X connect 1 0 2 0;
#X restore 30 170 pd;
#N canvas 0 23 142 116 (subpatch) 0;
#X obj 16 10 inlet;
#X msg 16 31 set \$1;
#X obj 16 52 outlet;
#X connect 0 0 1 0;
#X connect 1 0 2 0;
#X restore 29 192 pd;
#N canvas 0 23 142 116 (subpatch) 0;
#X obj 16 10 inlet;
#X msg 16 31 set \$1;
#X obj 16 52 outlet;
#X connect 0 0 1 0;
#X connect 1 0 2 0;
#X restore 27 258 pd;
#N canvas 0 23 662 268 (subpatch) 0;
#X obj 16 10 inlet;
#X msg 16 181 set \$1;
#X obj 16 202 outlet;
#X obj 16 58 clip 0 12;
#X obj 16 34 i;
#X obj 126 148 pow;
#X msg 126 120 2, f 1;
#X obj 126 95 t b f;
#X obj 126 175 s \$0-r-block-size-mon;
#X obj 388 17 inlet;
#X obj 388 38 i;
#X obj 388 59 outlet;
#X connect 0 0 4 0;
#X connect 1 0 2 0;
#X connect 3 0 1 0;
#X connect 3 0 7 0;
#X connect 4 0 3 0;
#X connect 5 0 8 0;
#X connect 6 0 5 0;
#X connect 7 0 6 0;
#X connect 7 1 5 1;
#X connect 9 0 10 0;
#X connect 10 0 11 0;
#X restore 135 193 pd;
#N canvas 0 23 274 213 (subpatch) 0;
#X obj 16 10 inlet;
#X msg 16 61 set \$1;
#X obj 16 132 outlet;
#X obj 122 85 s \$0-r-r-osc-freq;
#X obj 122 65 spigot 0;
#X obj 167 30 inlet;
#X connect 0 0 1 0;
#X connect 0 0 4 0;
#X connect 1 0 2 0;
#X connect 4 0 3 0;
#X connect 5 0 4 1;
#X restore 242 181 pd;
#N canvas 0 23 142 116 (subpatch) 0;
#X obj 16 10 inlet;
#X msg 16 31 set \$1;
#X obj 16 52 outlet;
#X connect 0 0 1 0;
#X connect 1 0 2 0;
#X restore 269 181 pd;
#X obj 121 377 hip~;
#X obj 164 376 hip~;
#X obj 121 397 hip~;
#X obj 164 397 hip~;
#X obj 33 65 hsl 100 15 0 5000 0 0 \$0-s-in-hip \$0-r-in-hip empty
-2 -8 0 10 -228856 -1 -1 0 1;
#X obj 138 65 nbx 5 15 0 5000 0 0 empty \$0-r-in-hip empty 0 -8 0 10
-228856 -1 -1 0 256;
#N canvas 0 23 142 116 (subpatch) 0;
#X obj 16 10 inlet;
#X msg 16 31 set \$1;
#X obj 16 52 outlet;
#X connect 0 0 1 0;
#X connect 1 0 2 0;
#X restore 29 214 pd;
#X obj 198 343 param.get 7;
#X obj 121 419 lop~;
#X obj 121 440 lop~;
#X obj 164 419 lop~;
#X obj 164 440 lop~;
#X obj 198 390 param.get 8;
#X obj 33 84 hsl 100 15 100 20000 0 0 \$0-s-in-lop \$0-r-in-lop empty
-2 -8 0 10 -228856 -1 -1 0 1;
#X obj 138 84 nbx 5 15 100 20000 0 0 empty \$0-r-in-lop empty 0 -8
0 10 -228856 -1 -1 100 256;
#N canvas 0 23 142 116 (subpatch) 0;
#X obj 16 10 inlet;
#X msg 16 31 set \$1;
#X obj 16 52 outlet;
#X connect 0 0 1 0;
#X connect 1 0 2 0;
#X restore 28 236 pd;
#X obj 195 142 tgl 15 0 \$0-s-link-osc-freq \$0-r-link-osc-freq empty
17 7 0 10 -191407 -1 -1 1 1;
#X obj 194 242 loadbang;
#X msg 194 263 1;
#X text 203 104 Write Block Size (Pow2 Samples);
#X text 202 6 In Volume;
#X text 202 65 In Lo-Cut;
#X text 202 84 In Hi-Cut;
#X text 383 142 OSC Freq;
#X text 189 126 Link;
#X text 68 124 ______Left______;
#X text 245 124 ______Right______;
#X connect 0 0 5 0;
#X connect 0 1 5 1;
#X connect 1 0 2 0;
#X connect 1 0 9 0;
#X connect 2 0 10 0;
#X connect 3 0 24 0;
#X connect 3 1 24 1;
#X connect 4 0 3 4;
#X connect 6 0 3 2;
#X connect 6 1 3 3;
#X connect 7 0 8 0;
#X connect 8 0 3 4;
#X connect 9 0 13 0;
#X connect 10 0 0 3;
#X connect 11 0 5 2;
#X connect 12 0 11 0;
#X connect 13 0 0 2;
#X connect 18 0 6 0;
#X connect 19 0 6 1;
#X connect 23 0 3 0;
#X connect 23 0 53 0;
#X connect 23 1 3 1;
#X connect 23 1 54 0;
#X connect 27 0 13 0;
#X connect 28 0 10 0;
#X connect 29 0 4 0;
#X connect 30 0 12 0;
#X connect 31 0 18 0;
#X connect 32 0 19 0;
#X connect 33 0 47 0;
#X connect 34 0 48 0;
#X connect 36 0 49 0;
#X connect 38 0 50 0;
#X connect 39 0 51 0;
#X connect 40 0 52 0;
#X connect 41 0 33 0;
#X connect 42 0 34 0;
#X connect 43 0 36 0;
#X connect 44 0 50 1;
#X connect 45 0 39 0;
#X connect 46 0 40 0;
#X connect 47 0 41 0;
#X connect 48 0 42 0;
#X connect 49 0 43 0;
#X connect 50 0 44 0;
#X connect 50 1 38 0;
#X connect 51 0 45 0;
#X connect 52 0 46 0;
#X connect 53 0 55 0;
#X connect 54 0 56 0;
#X connect 55 0 61 0;
#X connect 56 0 63 0;
#X connect 57 0 59 0;
#X connect 58 0 57 0;
#X connect 59 0 58 0;
#X connect 60 0 53 1;
#X connect 60 0 54 1;
#X connect 60 0 55 1;
#X connect 60 0 56 1;
#X connect 61 0 62 0;
#X connect 62 0 0 0;
#X connect 63 0 64 0;
#X connect 64 0 0 1;
#X connect 65 0 61 1;
#X connect 65 0 63 1;
#X connect 65 0 62 1;
#X connect 65 0 64 1;
#X connect 66 0 68 0;
#X connect 67 0 66 0;
#X connect 68 0 67 0;
#X connect 69 0 51 1;
#X connect 70 0 71 0;
#X connect 71 0 69 0;
#X coords 0 -1 1 1 460 160 1 2 2;
